


Season 5 Episode 6 of 10

Officers patrol during Black Eye Friday - one of Cumbria's most alcohol-fuelled nights of the year, and help a woman trapped inside a burning car. Meanwhile, a boy racer is made to call his mother after being caught misbehaving, and a motorway pursuit is brought to an abrupt end..





General
Complete name                            : Police.Interceptors.S05E06.PDTV.x264-W33D.mp4
Format                                   : MPEG-4
Format profile                           : Base Media
Codec ID                                 : isom
File size                                : 191 MiB
Duration                                 : 45mn 4s
Overall bit rate mode                    : Variable
Overall bit rate                         : 592 Kbps
Writing application                      : Lavf52.64.2

Video
ID                                       : 1
Format                                   : AVC
Format/Info                              : Advanced Video Codec
Format profile                           : High@L3.1
Format settings, CABAC                   : Yes
Format settings, ReFrames                : 4 frames
Codec ID                                 : avc1
Codec ID/Info                            : Advanced Video Coding
Duration                                 : 45mn 4s
Bit rate                                 : 524 Kbps
Width                                    : 688 pixels
Height                                   : 384 pixels
Display aspect ratio                     : 16:9
Frame rate mode                          : Constant
Frame rate                               : 25.000 fps
Color space                              : YUV
Chroma subsampling                       : 4:2:0
Bit depth                                : 8 bits
Scan type                                : Progressive
Bits/(Pixel*Frame)                       : 0.079
Stream size                              : 169 MiB (89%)

Audio
ID                                       : 2
Format                                   : AAC
Format/Info                              : Advanced Audio Codec
Format profile                           : LC
Codec ID                                 : 40
Duration                                 : 45mn 4s
Duration_LastFrame                       : -21ms
Bit rate mode                            : Variable
Bit rate                                 : 61.4 Kbps
Channel(s)                               : 2 channels
Channel positions                        : Front: L R
Sampling rate                            : 48.0 KHz
Compression mode                         : Lossy
Delay relative to video                  : 200ms
Stream size                              : 19.8 MiB (10%)